<svg t="1690357212614" class="icon" viewBox="0 0 1024 1024" version="1.1" xmlns="http://www.w3.org/2000/svg" p-id="1021" width="16" height="16"><path d="M255.7568 273.5424c6.6176-2.9312 12.8256-5.9584 19.232-8.4672 14.0416-5.4784 28.6848-8.1408 43.744-8.1472 170.9824-0.032 341.9648-0.128 512.9408 0.0384 60.7424 0.0576 111.7312 41.2544 124.9792 100.6592 2.0224 9.0752 2.944 18.5792 2.9696 27.8912 0.2176 85.1136 0.1536 170.2336 0.1216 255.3536-0.0192 63.8144-45.4912 117.12-108.5824 127.1616-6.496 1.0368-13.1648 1.4464-19.7504 1.4528-170.4448 0.0768-340.896 0.0768-511.3408 0.0512-62.0224-0.0128-114.816-43.8016-126.1376-104.8384-1.504-8.1216-2.0864-16.5312-2.0928-24.8064-0.128-127.0336-0.0832-254.0736-0.096-381.1072-0.0064-29.152-17.6448-53.888-44.7232-62.1312-5.9328-1.8048-12.3072-2.6944-18.5216-2.9632-10.9632-0.4736-21.9648-0.0768-32.9536-0.16-16.3584-0.128-29.6704-12.2048-31.6544-28.6016-1.888-15.5904 8.736-30.688 24.3328-34.4576 2.1568-0.5248 4.4224-0.8704 6.6368-0.8576 14.6048 0.0896 29.2928-0.6144 43.8016 0.64 40.4992 3.5072 72.2624 22.7264 95.2768 56.0704 14.5536 21.088 21.5296 44.768 21.792 70.3936 0.0704 5.5424 0.0256 11.0848 0.0256 16.8256z m319.68 432.0064c85.3312 0 170.6624 0.0448 256-0.0192 35.904-0.032 64.256-28.2688 64.2944-64.1408 0.096-85.44 0.0896-170.88 0-256.32-0.0384-35.7248-28.3008-64.1152-63.9744-64.128-170.6624-0.0768-341.3312-0.0768-511.9936 0-35.6672 0.0128-63.9744 28.512-63.9936 64.128-0.0448 85.44-0.0384 170.88 0.0512 256.32 0.0064 4.7552 0.512 9.6192 1.5744 14.2528 6.816 29.7088 32.3264 49.8816 63.0016 49.8944 85.0176 0.0384 170.0288 0.0128 255.04 0.0128zM367.8336 801.5552c26.4768 0.0256 47.9296 21.5424 47.9232 48.064-0.0128 26.464-21.5616 47.9488-48.064 47.9232-26.4704-0.0256-47.9552-21.5744-47.9296-48.0704 0.032-26.4704 21.568-47.9424 48.0704-47.9168zM831.7568 849.5552c0.0256 26.4576-21.5104 47.9872-48 47.9872-26.4832 0-47.9872-21.5168-47.9872-48.0064 0-26.4832 21.5232-47.9936 48.0064-47.9872 26.496 0.0128 47.9552 21.4848 47.9808 48.0064z" p-id="1022"></path></svg>